<svg version="1.1" xmlns="http://www.w3.org/2000/svg" xmlns:xlink="http://www.w3.org/1999/xlink" width="353.81979" height="284.3427" viewBox="0,0,353.81979,284.3427"><g transform="translate(-65.5901,-40.32865)"><g data-paper-data="{&quot;isPaintingLayer&quot;:true}" fill-rule="nonzero" stroke="none" stroke-width="0" stroke-linejoin="miter" stroke-miterlimit="10" stroke-dasharray="" stroke-dashoffset="0" style="mix-blend-mode: normal"><path d="M285.95999,63.66854l55.60413,34.21793l-47.04964,59.88136l47.29404,-62.20331l29.69628,-10.50978l14.54262,-1.7109l17.96441,23.0971l15.39806,44.4833l-0.85545,33.36247l-9.40993,20.53075l-25.66344,19.6753l8.55448,3.4218l-1.71089,36.78427l-15.39806,18.81986l-30.79613,18.81985l-38.49516,11.97627l-39.35061,0.85545c0,0 -68.91104,11.30475 -98.12498,9.25189c-18.82862,-1.32312 -60.13291,-20.37271 -60.13291,-20.37271c0,0 44.76864,-2.61245 34.21793,-5.13268c-63.94512,-15.27445 -111.21595,-144.9052 -23.95255,-252.35718c3.15202,-3.88125 20.59363,2.65634 20.59363,2.65634l148.78509,44.39331z" fill="#000000" stroke-linecap="round"/><path d="M393.23318,217.79586c0,0 -9.5903,6.24648 -12.24197,6.4792c-8.01217,0.70326 -17.25464,-3.82146 -25.90177,-2.44239c-10.69387,1.70547 -24.84679,15.19516 -45.07398,18.85643c-26.46422,4.79017 -58.54229,-0.28499 -58.54229,-0.28499c0,0 -37.75293,-66.01184 37.70922,-81.46534c37.95995,-7.77358 63.11145,54.57981 63.11145,54.57981c0,0 -13.50782,-54.29631 21.97475,-59.806c20.30149,-3.15241 18.96455,64.08324 18.96455,64.08324z" fill="#000000" stroke-linecap="round"/><path d="M307.88203,204.27732c0,13.66733 -4.78747,24.74687 -10.6931,24.74687c-5.90563,0 -10.6931,-11.07954 -10.6931,-24.74687c0,-13.66733 4.78747,-24.74688 10.6931,-24.74688c5.90563,0 10.6931,11.07955 10.6931,24.74688z" fill="#000000" stroke-linecap="butt"/><path d="M378.2703,196.3103c0,13.66733 -4.78747,24.74691 -10.6931,24.74691c-5.90563,0 -10.6931,-11.07958 -10.6931,-24.74691c0,-13.66733 4.78747,-24.74691 10.6931,-24.74691c5.90563,0 10.6931,11.07959 10.6931,24.74692z" fill="#000000" stroke-linecap="butt"/><path d="M387.7338,228.18343c22.26351,11.12305 5.67894,38.86625 -22.28267,60.30442c-1.79289,1.37462 -3.63257,2.72332 -5.51178,4.04007c-10.36426,7.26211 -27.91015,12.46473 -37.48651,17.12786c-11.363,5.53312 -41.03901,4.68354 -41.03901,4.68354c0,0 -21.91961,-3.12581 -30.46451,-8.45251c-6.66805,-4.15666 -16.58513,-20.87712 -16.58513,-20.87712l-6.11034,-10.99863l-11.60967,-4.88828l10.99863,-5.49929l-12.22067,-15.27586l12.22068,-0.61105l-5.49929,-20.16415c0,0 6.389,18.75078 65.93268,16.3107c57.70823,-2.36485 44.63775,-17.54914 67.01747,-22.38156c13.18656,-2.84736 25.09525,2.91238 32.64018,6.68191z" fill="#000000" stroke-linecap="round"/><path d="M416.78567,254.12768c-5.00309,8.22137 -21.79233,10.10973 -37.49972,4.21775c-15.70744,-5.89198 -24.38498,-17.33318 -19.38189,-25.55455c5.00309,-8.22137 21.79233,-10.10973 37.49972,-4.21774c15.70744,5.89198 24.38498,17.33317 19.38189,25.55454z" fill="#000000" stroke-linecap="butt"/><path d="M271.63731,149.97102c0,0 -34.19961,28.74553 -44.93664,46.14346c-11.23742,18.20877 -21.05506,60.78754 -21.05506,60.78754c0,0 -51.02684,-14.77055 -66.58444,-39.57641c-48.42666,-77.21385 25.64514,-132.7353 25.64514,-132.7353c0,0 9.62789,0.57927 25.45954,6.39272c13.17386,4.83748 31.95894,14.42688 40.89889,19.89302c6.80997,4.16381 24.46149,14.97585 33.69652,24.60341c7.03379,7.33277 6.87605,14.49155 6.87605,14.49155z" fill="#000000" stroke-linecap="round"/><path d="M167.24754,215.43991c-27.04448,-43.57281 -18.2645,-102.71741 24.9553,-103.96401c19.91611,-0.57448 67.79957,39.72238 67.79957,39.72238c0,0 -3.42607,0.21015 -28.61149,27.77012c-20.18088,22.08356 -28.80045,59.60261 -28.80045,59.60261c0,0 -22.98216,-4.01979 -35.34292,-23.1311z" fill="#000000" stroke-linecap="round"/><path d="M313.24872,294.62322c0,0 -18.85275,9.86165 -41.1491,-5.34407c-18.02018,-12.28945 -20.15799,-28.87385 -20.15799,-28.87385" fill="#000000" stroke-linecap="round"/><path d="M280.95999,58.66854l55.60413,34.21793l-47.04964,59.88136l47.29404,-62.20331l29.69628,-10.50978l14.54262,-1.7109l17.96441,23.0971l15.39806,44.4833l-0.85545,33.36247l-9.40993,20.53075l-25.66344,19.6753l8.55448,3.4218l-1.71089,36.78427l-15.39806,18.81986l-30.79613,18.81985l-38.49516,11.97627l-39.35061,0.85545c0,0 -68.91104,11.30475 -98.12498,9.25189c-18.82862,-1.32312 -60.13291,-20.37271 -60.13291,-20.37271c0,0 44.76864,-2.61245 34.21793,-5.13268c-63.94512,-15.27445 -111.21595,-144.9052 -23.95255,-252.35718c3.15202,-3.88125 20.59363,2.65634 20.59363,2.65634l148.78509,44.39331z" fill="#717171" stroke-linecap="round"/><path d="M388.23318,212.79586c0,0 -9.5903,6.24648 -12.24197,6.4792c-8.01217,0.70326 -17.25464,-3.82146 -25.90177,-2.44239c-10.69387,1.70547 -24.84679,15.19516 -45.07398,18.85643c-26.46422,4.79017 -58.54229,-0.28499 -58.54229,-0.28499c0,0 -37.75293,-66.01184 37.70922,-81.46534c37.95995,-7.77358 63.11145,54.57981 63.11145,54.57981c0,0 -13.50782,-54.29631 21.97475,-59.806c20.30149,-3.15241 18.96455,64.08324 18.96455,64.08324z" fill="#717171" stroke-linecap="round"/><path d="M302.88203,199.27732c0,13.66733 -4.78747,24.74687 -10.6931,24.74687c-5.90563,0 -10.6931,-11.07954 -10.6931,-24.74687c0,-13.66733 4.78747,-24.74688 10.6931,-24.74688c5.90563,0 10.6931,11.07955 10.6931,24.74688z" fill="#717171" stroke-linecap="butt"/><path d="M373.2703,191.3103c0,13.66733 -4.78747,24.74691 -10.6931,24.74691c-5.90563,0 -10.6931,-11.07958 -10.6931,-24.74691c0,-13.66733 4.78747,-24.74691 10.6931,-24.74691c5.90563,0 10.6931,11.07959 10.6931,24.74692z" fill="#717171" stroke-linecap="butt"/><path d="M382.7338,223.18343c22.26351,11.12305 5.67894,38.86625 -22.28267,60.30442c-1.79289,1.37462 -3.63257,2.72332 -5.51178,4.04007c-10.36426,7.26211 -27.91015,12.46473 -37.48651,17.12786c-11.363,5.53312 -41.03901,4.68354 -41.03901,4.68354c0,0 -21.91961,-3.12581 -30.46451,-8.45251c-6.66805,-4.15666 -16.58513,-20.87712 -16.58513,-20.87712l-6.11034,-10.99863l-11.60967,-4.88828l10.99863,-5.49929l-12.22067,-15.27586l12.22068,-0.61105l-5.49929,-20.16415c0,0 6.389,18.75078 65.93268,16.3107c57.70823,-2.36485 44.63775,-17.54914 67.01747,-22.38156c13.18656,-2.84736 25.09525,2.91238 32.64018,6.68191z" fill="#717171" stroke-linecap="round"/><path d="M411.78567,249.12768c-5.00309,8.22137 -21.79233,10.10973 -37.49972,4.21775c-15.70744,-5.89198 -24.38498,-17.33318 -19.38189,-25.55455c5.00309,-8.22137 21.79233,-10.10973 37.49972,-4.21774c15.70744,5.89198 24.38498,17.33317 19.38189,25.55454z" fill="#717171" stroke-linecap="butt"/><path d="M266.63731,144.97102c0,0 -34.19961,28.74553 -44.93664,46.14346c-11.23742,18.20877 -21.05506,60.78754 -21.05506,60.78754c0,0 -51.02684,-14.77055 -66.58444,-39.57641c-48.42666,-77.21385 25.64514,-132.7353 25.64514,-132.7353c0,0 9.62789,0.57927 25.45954,6.39272c13.17386,4.83748 31.95894,14.42688 40.89889,19.89302c6.80997,4.16381 24.46149,14.97585 33.69652,24.60341c7.03379,7.33277 6.87605,14.49155 6.87605,14.49155z" fill="#717171" stroke-linecap="round"/><path d="M162.24754,210.43991c-27.04448,-43.57281 -18.2645,-102.71741 24.9553,-103.96401c19.91611,-0.57448 67.79957,39.72238 67.79957,39.72238c0,0 -3.42607,0.21015 -28.61149,27.77012c-20.18088,22.08356 -28.80045,59.60261 -28.80045,59.60261c0,0 -22.98216,-4.01979 -35.34292,-23.1311z" fill="#717171" stroke-linecap="round"/><path d="M308.24872,289.62322c0,0 -18.85275,9.86165 -41.1491,-5.34407c-18.02018,-12.28945 -20.15799,-28.87385 -20.15799,-28.87385" fill="#717171" stroke-linecap="round"/></g></g></svg>